<?xml version="1.0" standalone="no"?>
<!DOCTYPE svg PUBLIC "-//W3C//DTD SVG 20010904//EN"
 "http://www.w3.org/TR/2001/REC-SVG-20010904/DTD/svg10.dtd">
<svg version="1.0" xmlns="http://www.w3.org/2000/svg"
 width="192.000000pt" height="192.000000pt" viewBox="0 0 192.000000 192.000000"
 preserveAspectRatio="xMidYMid meet">

<g transform="translate(0.000000,192.000000) scale(0.100000,-0.100000)"
fill="#000000" stroke="none">
<path d="M1042 1560 c-384 -32 -728 -227 -888 -505 l-29 -50 65 64 c289 281
799 374 1122 204 173 -91 262 -253 228 -419 -35 -172 -191 -349 -405 -458 -38
-19 -67 -35 -63 -36 4 0 52 14 105 31 487 155 771 542 625 853 -78 166 -295
293 -531 311 -42 3 -89 7 -106 9 -16 2 -72 0 -123 -4z"/>
<path d="M704 1306 c-220 -42 -383 -124 -509 -257 -64 -67 -111 -136 -101
-146 3 -4 6 -1 6 5 0 20 134 120 216 161 114 57 209 81 344 88 228 10 397 -59
478 -195 24 -42 27 -57 27 -137 0 -78 -4 -97 -27 -141 -51 -96 -145 -188 -258
-253 -65 -37 -63 -38 21 -10 210 69 379 201 455 355 35 71 39 85 39 158 0 105
-26 165 -103 239 -61 58 -132 96 -227 121 -83 23 -272 29 -361 12z"/>
</g>
</svg>
